<svg xmlns="http://www.w3.org/2000/svg" width="920" height="920" viewBox="0 0 920 920">
  <g stroke="white" stroke-opacity="0.32" stroke-width="1.2" fill="none">
    <rect x="0" y="0" width="920" height="920" fill="none"/>
    <circle cx="460" cy="460" r="80"/>
    <circle cx="460" cy="460" r="160"/>
    <circle cx="460" cy="460" r="240"/>
    <circle cx="460" cy="460" r="320"/>
    <g opacity="0.95">
<path d="M 478.0,460.0 L 478.3,463.0 L 478.1,466.0 L 477.3,469.0 L 476.1,472.0 L 474.4,474.8 L 472.1,477.3 L 469.4,479.5 L 466.4,481.2 L 463.0,482.5 L 459.3,483.2 L 455.5,483.3 L 451.7,482.8 L 447.9,481.6 L 444.3,479.8 L 441.0,477.4 L 438.0,474.5 L 435.5,471.0 L 433.6,467.1 L 432.3,462.8 L 431.6,458.3 L 431.8,453.7 L 432.6,449.1 L 434.3,444.6 L 436.7,440.4 L 439.7,436.5 L 443.5,433.2 L 447.7,430.4 L 452.5,428.3 L 457.6,427.0 L 462.9,426.5 L 468.4,426.9 L 473.7,428.2 L 478.9,430.4 L 483.7,433.4 L 488.1,437.1 L 491.8,441.7" />
<path d="M 491.8,441.7 L 494.8,446.8 L 497.0,452.4 L 498.2,458.3 L 498.5,464.5 L 497.8,470.7 L 496.1,476.9 L 493.4,482.7 L 489.7,488.1 L 485.2,492.9 L 479.9,496.9 L 473.9,500.1 L 467.4,502.3 L 460.6,503.5 L 453.6,503.5 L 446.6,502.5 L 439.8,500.2 L 433.3,496.9 L 427.4,492.6 L 422.2,487.3 L 417.9,481.1 L 414.6,474.3 L 412.3,466.9 L 411.3,459.3 L 411.6,451.4 L 413.0,443.6 L 415.8,436.1 L 419.8,429.1 L 424.8,422.7 L 430.9,417.1 L 437.9,412.6 L 445.6,409.2 L 453.8,407.0 L 462.4,406.2 L 471.0,406.7 L 479.6,408.7 L 487.8,412.0" />
<path d="M 487.8,412.0 L 495.4,416.6 L 502.2,422.5 L 508.1,429.4 L 512.8,437.3 L 516.3,445.8 L 518.3,454.9 L 518.9,464.3 L 518.0,473.8 L 515.5,483.1 L 511.6,491.9 L 506.2,500.0 L 499.6,507.3 L 491.8,513.4 L 483.1,518.3 L 473.6,521.8 L 463.6,523.7 L 453.4,523.9 L 443.2,522.6 L 433.2,519.6 L 423.8,515.0 L 415.1,508.9 L 407.5,501.4 L 401.1,492.8 L 396.2,483.2 L 392.8,472.8 L 391.1,461.9 L 391.1,450.9 L 393.0,439.8 L 396.6,429.2 L 401.9,419.2 L 408.7,410.1 L 417.0,402.1 L 426.6,395.6 L 437.1,390.6 L 448.4,387.3 L 460.1,385.8" />
<path d="M 460.1,385.8 L 472.0,386.3 L 483.7,388.6 L 495.0,392.9 L 505.6,398.9 L 515.1,406.6 L 523.4,415.8 L 530.1,426.2 L 535.1,437.6 L 538.2,449.8 L 539.3,462.4 L 538.4,475.1 L 535.5,487.6 L 530.6,499.5 L 523.8,510.6 L 515.3,520.5 L 505.2,529.0 L 493.9,535.8 L 481.5,540.7 L 468.4,543.6 L 455.0,544.4 L 441.5,543.0 L 428.3,539.5 L 415.7,533.9 L 404.2,526.3 L 394.0,516.9 L 385.3,505.9 L 378.5,493.6 L 373.6,480.3 L 371.0,466.3 L 370.6,452.0 L 372.5,437.8 L 376.7,423.9 L 383.1,410.8 L 391.5,398.8 L 401.8,388.3 L 413.7,379.5" />
<path d="M 413.7,379.5 L 426.9,372.7 L 441.2,368.0 L 456.0,365.6 L 471.2,365.7 L 486.2,368.2 L 500.7,373.1 L 514.3,380.2 L 526.7,389.5 L 537.5,400.7 L 546.4,413.6 L 553.2,427.8 L 557.6,443.0 L 559.6,458.7 L 559.1,474.7 L 556.0,490.5 L 550.4,505.6 L 542.4,519.7 L 532.2,532.4 L 520.0,543.4 L 506.2,552.4 L 491.0,559.1 L 474.9,563.2 L 458.3,564.8 L 441.5,563.7 L 425.0,559.9 L 409.3,553.6 L 394.7,544.7 L 381.7,533.6 L 370.6,520.5 L 361.6,505.6 L 355.1,489.5 L 351.2,472.5 L 350.1,455.0 L 351.8,437.4 L 356.3,420.3 L 363.5,404.0" />
<path d="M 363.5,404.0 L 373.2,389.0 L 385.3,375.7 L 399.4,364.4 L 415.2,355.5 L 432.3,349.2 L 450.2,345.7 L 468.6,345.1 L 486.9,347.4 L 504.7,352.7 L 521.5,360.7 L 536.9,371.4 L 550.4,384.5 L 561.8,399.6 L 570.6,416.4 L 576.6,434.4 L 579.7,453.3 L 579.8,472.5 L 576.8,491.6 L 570.7,510.0 L 561.8,527.3 L 550.1,543.0 L 536.1,556.7 L 520.0,568.0 L 502.2,576.7 L 483.1,582.4 L 463.3,585.1 L 443.3,584.5 L 423.5,580.8 L 404.5,573.9 L 386.8,564.0 L 370.8,551.4 L 356.9,536.3 L 345.6,519.2 L 337.2,500.4 L 331.8,480.4 L 329.7,459.7" />
<path d="M 329.7,459.7 L 330.9,438.8 L 335.4,418.4 L 343.2,398.8 L 354.0,380.7 L 367.6,364.4 L 383.7,350.5 L 401.9,339.3 L 421.8,331.1 L 442.7,326.1 L 464.3,324.5 L 485.9,326.5 L 507.0,331.8 L 527.1,340.5 L 545.6,352.3 L 562.1,367.0 L 576.0,384.1 L 587.1,403.4 L 595.0,424.2 L 599.5,446.1 L 600.5,468.6 L 597.8,490.9 L 591.6,512.7 L 582.0,533.3 L 569.1,552.1 L 553.4,568.7 L 535.2,582.6 L 514.9,593.5 L 493.0,601.1 L 470.2,605.0 L 446.9,605.3 L 423.8,601.9 L 401.4,594.8 L 380.4,584.2 L 361.3,570.3 L 344.6,553.5 L 330.7,534.1" />
<path d="M 330.7,534.1 L 320.1,512.8 L 312.9,489.9 L 309.5,466.1 L 310.0,442.0 L 314.2,418.2 L 322.3,395.3 L 333.9,373.9 L 348.9,354.5 L 366.8,337.8 L 387.2,324.0 L 409.6,313.7 L 433.5,307.0 L 458.2,304.2 L 483.1,305.4 L 507.6,310.6 L 531.1,319.6 L 552.8,332.3 L 572.4,348.3 L 589.1,367.4 L 602.7,388.9 L 612.7,412.4 L 618.9,437.2 L 621.0,462.9 L 619.0,488.6 L 612.9,513.7 L 602.8,537.6 L 589.1,559.7 L 571.9,579.4 L 551.7,596.1 L 529.1,609.4 L 504.5,619.0 L 478.7,624.6 L 452.2,626.0 L 425.8,623.2 L 400.0,616.1 L 375.6,605.0" />
<path d="M 375.6,605.0 L 353.3,590.1 L 333.5,571.8 L 316.9,550.5 L 303.8,526.7 L 294.7,501.1 L 289.7,474.3 L 289.1,447.0 L 292.8,419.8 L 300.9,393.5 L 313.1,368.7 L 329.1,346.1 L 348.6,326.3 L 371.1,309.8 L 395.9,297.1 L 422.6,288.5 L 450.4,284.2 L 478.6,284.4 L 506.4,289.1 L 533.3,298.2 L 558.4,311.5 L 581.2,328.7 L 601.0,349.4 L 617.2,373.0 L 629.6,399.0 L 637.7,426.7 L 641.2,455.4 L 640.2,484.4 L 634.5,512.9 L 624.3,540.3 L 609.8,565.7 L 591.4,588.6 L 569.6,608.3 L 544.8,624.3 L 517.7,636.2 L 488.9,643.7 L 459.3,646.5" />
<path d="M 459.3,646.5 L 429.5,644.5 L 400.4,637.8 L 372.5,626.5 L 346.8,610.8 L 323.9,591.2 L 304.3,568.2 L 288.6,542.2 L 277.2,514.0 L 270.4,484.2 L 268.4,453.7 L 271.4,423.1 L 279.2,393.4 L 291.6,365.2 L 308.5,339.2 L 329.3,316.3 L 353.6,296.8 L 380.7,281.5 L 410.1,270.6 L 440.8,264.6 L 472.2,263.5 L 503.5,267.4 L 533.8,276.4 L 562.4,290.0 L 588.5,308.1 L 611.5,330.2 L 630.6,355.7 L 645.6,384.0 L 655.8,414.4 L 661.1,446.2 L 661.2,478.4 L 656.2,510.4 L 646.2,541.2 L 631.3,570.1 L 612.0,596.4 L 588.6,619.2 L 561.9,638.1" />
<path d="M 561.9,638.1 L 532.4,652.6 L 500.9,662.2 L 468.2,666.6 L 435.1,665.8 L 402.5,659.7 L 371.2,648.4 L 342.0,632.3 L 315.7,611.7 L 293.0,587.1 L 274.4,559.1 L 260.5,528.4 L 251.6,495.8 L 248.1,462.2 L 249.9,428.3 L 257.1,395.1 L 269.6,363.3 L 287.0,333.9 L 308.9,307.6 L 334.8,285.1 L 364.1,266.9 L 395.9,253.6 L 429.5,245.5 L 464.1,242.9 L 498.7,245.8 L 532.5,254.2 L 564.7,267.9 L 594.2,286.7 L 620.5,309.9 L 642.8,337.1 L 660.5,367.6 L 673.2,400.6 L 680.5,435.2 L 682.1,470.7 L 678.1,506.1 L 668.4,540.4 L 653.4,572.8" />
<path d="M 653.4,572.8 L 633.4,602.5 L 608.8,628.7 L 580.3,650.7 L 548.6,667.9 L 514.4,679.9 L 478.7,686.3 L 442.4,686.9 L 406.4,681.7 L 371.5,670.8 L 338.8,654.4 L 309.0,633.0 L 283.0,607.1 L 261.4,577.3 L 244.7,544.3 L 233.5,509.1 L 228.1,472.4 L 228.6,435.2 L 235.0,398.6 L 247.1,363.3 L 264.8,330.3 L 287.6,300.5 L 314.9,274.7 L 346.0,253.5 L 380.2,237.5 L 416.6,227.1 L 454.2,222.6 L 492.2,224.2 L 529.5,231.9 L 565.2,245.4 L 598.3,264.5 L 628.1,288.6 L 653.7,317.3 L 674.4,349.7 L 689.7,385.1 L 699.2,422.6 L 702.6,461.2" />
<path d="M 702.6,461.2 L 699.9,499.9 L 690.9,537.8 L 676.0,573.8 L 655.6,607.1 L 630.0,636.8 L 599.9,662.0 L 566.2,682.2 L 529.6,696.8 L 491.0,705.4 L 451.5,707.7 L 412.1,703.7 L 373.7,693.4 L 337.3,677.2 L 304.0,655.2 L 274.5,628.2 L 249.6,596.8 L 230.0,561.8 L 216.3,524.0 L 208.7,484.4 L 207.5,444.0 L 212.7,403.8 L 224.4,365.0 L 242.1,328.4 L 265.4,295.0 L 293.9,265.7 L 326.7,241.3 L 363.0,222.3 L 402.0,209.4 L 442.6,202.9 L 483.9,202.9 L 524.7,209.4 L 564.0,222.5 L 600.8,241.6 L 634.1,266.5 L 663.1,296.3 L 687.0,330.5" />
<path d="M 687.0,330.5 L 705.3,368.2 L 717.3,408.3 L 722.7,450.0 L 721.5,492.0 L 713.6,533.4 L 699.1,573.1 L 678.4,610.0 L 652.1,643.3 L 620.8,671.9 L 585.2,695.3 L 546.3,712.8 L 505.0,723.8 L 462.4,728.1 L 419.6,725.6 L 377.6,716.2 L 337.6,700.3 L 300.6,678.2 L 267.5,650.4 L 239.2,617.6 L 216.5,580.6 L 199.9,540.4 L 189.9,498.0 L 186.7,454.5 L 190.6,410.9 L 201.4,368.5 L 218.8,328.2 L 242.5,291.1 L 271.8,258.2 L 306.1,230.4 L 344.4,208.3 L 385.8,192.6 L 429.3,183.7 L 473.7,181.8 L 518.0,187.1 L 560.9,199.3 L 601.4,218.3" />
<path d="M 601.4,218.3 L 638.5,243.5 L 671.1,274.3 L 698.4,310.1 L 719.7,349.8 L 734.5,392.4 L 742.3,437.0 L 742.8,482.3 L 736.2,527.2 L 722.4,570.5 L 701.9,611.2 L 675.1,648.1 L 642.7,680.4 L 605.6,707.2 L 564.5,727.7 L 520.6,741.4 L 475.0,748.0 L 428.9,747.2 L 383.4,739.1 L 339.7,723.8 L 298.9,701.7 L 262.1,673.4 L 230.2,639.4 L 204.1,600.8 L 184.5,558.4 L 171.8,513.3 L 166.5,466.8 L 168.6,419.8 L 178.3,373.8 L 195.1,329.8 L 218.8,288.9 L 248.8,252.3 L 284.3,220.9 L 324.4,195.5 L 368.1,176.8 L 414.3,165.2 L 461.9,161.2" />
<path d="M 461.9,161.2 L 509.5,164.8 L 556.1,176.0 L 600.3,194.4 L 641.2,219.8 L 677.5,251.4 L 708.4,288.4 L 733.0,329.9 L 750.8,374.9 L 761.1,422.3 L 763.8,470.8 L 758.7,519.1 L 746.0,566.1 L 725.9,610.6 L 698.9,651.4 L 665.7,687.4 L 627.1,717.7 L 584.1,741.5 L 537.8,758.2 L 489.4,767.3 L 440.0,768.6 L 391.0,761.9 L 343.6,747.6 L 299.0,725.8 L 258.4,697.2 L 222.8,662.3 L 193.1,622.2 L 170.2,577.8 L 154.6,530.3 L 146.8,480.8 L 147.0,430.5 L 155.2,380.9 L 171.2,333.2 L 194.6,288.5 L 225.0,248.1 L 261.4,212.9 L 303.1,184.0" />
<path d="M 303.1,184.0 L 348.9,162.0 L 397.7,147.6 L 448.2,141.1 L 499.2,142.8 L 549.4,152.6 L 597.4,170.3 L 642.1,195.5 L 682.3,227.5 L 716.9,265.6 L 745.1,308.8 L 766.0,355.9 L 779.2,405.9 L 784.3,457.5 L 781.0,509.3 L 769.6,559.9 L 750.2,608.2 L 723.3,652.9 L 689.6,692.7 L 649.9,726.7 L 605.2,754.0 L 556.6,773.9 L 505.4,785.8 L 452.9,789.4 L 400.5,784.6 L 349.3,771.4 L 300.9,750.3 L 256.3,721.6 L 216.9,686.2 L 183.5,644.9 L 157.1,598.7 L 138.4,548.8 L 127.8,496.5 L 125.7,443.1 L 132.2,389.9 L 147.1,338.4 L 170.0,289.8" />
<path d="M 170.0,289.8 L 200.4,245.5 L 237.6,206.5 L 280.5,173.8 L 328.2,148.4 L 379.4,130.9 L 432.8,121.7 L 487.1,121.2 L 540.9,129.3 L 592.7,146.0 L 641.3,170.7 L 685.4,202.9 L 723.9,241.7 L 755.8,286.3 L 780.2,335.5 L 796.4,388.0 L 804.1,442.4 L 803.0,497.6 L 793.2,551.9 L 774.8,604.0 L 748.2,652.6 L 714.2,696.4 L 673.7,734.3 L 627.5,765.3 L 576.9,788.6 L 523.1,803.5 L 467.6,809.7 L 411.7,806.9 L 356.9,795.3 L 304.6,775.1 L 256.1,746.7 L 212.6,710.9 L 175.4,668.6 L 145.3,620.9 L 123.2,568.8 L 109.7,513.9 L 105.0,457.4" />
<path d="M 105.0,457.4 L 109.5,400.8 L 122.9,345.5 L 145.0,293.0 L 175.2,244.7 L 212.8,201.7 L 256.8,165.1 L 306.2,136.1 L 359.6,115.2 L 415.7,103.1 L 473.2,100.1 L 530.5,106.3 L 586.1,121.5 L 638.7,145.5 L 686.8,177.6 L 729.3,217.0 L 765.0,262.7 L 793.0,313.6 L 812.6,368.4 L 823.2,425.7 L 824.6,484.0 L 816.6,541.9 L 799.5,597.9 L 773.6,650.5 L 739.6,698.4 L 698.4,740.3 L 651.0,775.1 L 598.6,802.0 L 542.4,820.2 L 484.0,829.3 L 424.8,828.9 L 366.4,819.1 L 310.2,800.0 L 257.6,772.3 L 210.1,736.4 L 168.8,693.4 L 134.9,644.3" />
<path d="M 134.9,644.3 L 109.2,590.3 L 92.4,532.9 L 85.0,473.4 L 87.1,413.4 L 98.8,354.5 L 119.8,298.1 L 149.5,245.6 L 187.2,198.5 L 232.1,158.0 L 282.8,125.1 L 338.3,100.6 L 397.0,85.3 L 457.5,79.6 L 518.2,83.5 L 577.6,97.1 L 634.2,120.0 L 686.4,151.7 L 733.0,191.3 L 772.8,238.0 L 804.6,290.4 L 827.7,347.3 L 841.5,407.3 L 845.5,468.7 L 839.7,530.1 L 824.2,589.9 L 799.3,646.5 L 765.7,698.5 L 724.1,744.6 L 675.7,783.4 L 621.6,814.1 L 563.3,835.9 L 502.1,848.0 L 439.7,850.3 L 377.7,842.6 L 317.6,825.1 L 261.0,798.2" />
<path d="M 261.0,798.2 L 209.3,762.6 L 163.9,719.1 L 126.0,668.9 L 96.5,613.2 L 76.2,553.5 L 65.7,491.2 L 65.3,427.9 L 74.9,365.3 L 94.4,305.0 L 123.4,248.4 L 161.0,197.2 L 206.3,152.5 L 258.3,115.5 L 315.6,87.3 L 376.7,68.6 L 440.1,59.8 L 504.2,61.2 L 567.3,72.8 L 627.8,94.4 L 684.2,125.4 L 735.0,165.0 L 778.9,212.2 L 814.8,266.0 L 841.6,324.8 L 858.8,387.2 L 865.8,451.7 L 862.5,516.5 L 848.8,580.1 L 825.2,640.7 L 792.2,696.9 L 750.6,747.2 L 701.4,790.2 L 646.0,824.9 L 585.6,850.4 L 521.9,865.9 L 456.4,871.1" />
<path d="M 456.4,871.1 L 390.9,865.8 L 327.0,850.1 L 266.3,824.4 L 210.4,789.3 L 160.7,745.7 L 118.6,694.6 L 85.1,637.5 L 61.1,575.6 L 47.3,510.6 L 44.0,444.2 L 51.3,378.1 L 69.1,313.8 L 96.9,253.1 L 134.1,197.6 L 179.7,148.6 L 232.6,107.5 L 291.5,75.3 L 354.8,52.9 L 420.9,40.8 L 488.3,39.4 L 555.0,48.8 L 619.5,68.7 L 680.1,98.7 L 735.2,138.0 L 783.4,185.6 L 823.4,240.3 L 854.2,300.8 L 875.1,365.6 L 885.3,432.9 L 884.7,501.0 L 873.3,568.3 L 851.2,633.0 L 819.1,693.4 L 777.7,748.0 L 728.1,795.3 L 671.5,834.2" />
<path d="M 671.5,834.2 L 609.4,863.6 L 543.3,882.8 L 474.9,891.1 L 405.9,888.5 L 338.2,874.9 L 273.4,850.7 L 213.3,816.4 L 159.3,772.9 L 112.9,721.3 L 75.2,662.9 L 47.3,599.2 L 29.9,531.8 L 23.4,462.3 L 28.1,392.6 L 43.9,324.5 L 70.3,259.7 L 106.8,199.9 L 152.3,146.6 L 205.9,101.1 L 266.1,64.8 L 331.4,38.4 L 400.1,22.8 L 470.6,18.3 L 540.9,25.1 L 609.3,43.1 L 674.1,71.7 L 733.5,110.4 L 786.1,158.1 L 830.5,213.6 L 865.5,275.6 L 890.2,342.4 L 903.9,412.4 L 906.4,483.7 L 897.4,554.7 L 877.2,623.3 L 846.3,688.0" />
<path d="M 846.3,688.0 L 805.5,746.9 L 755.7,798.7 L 698.2,841.9 L 634.5,875.5 L 566.2,898.5 L 495.1,910.3 L 422.8,910.7 L 351.4,899.5 L 282.5,877.1 L 218.1,843.9 L 159.7,800.8 L 108.8,749.0 L 66.8,689.6 L 34.8,624.2 L 13.5,554.5 L 3.7,482.1 L 5.4,409.1 L 18.9,337.2 L 43.6,268.3 L 79.0,204.1 L 124.3,146.3 L 178.2,96.4 L 239.5,55.7 L 306.6,25.2 L 377.7,5.8 L 451.1,-2.0 L 524.9,2.0 L 597.2,17.7 L 666.1,44.7 L 730.0,82.4 L 787.0,129.9 L 835.9,185.9 L 875.2,249.0 L 904.0,317.7 L 921.5,390.2 L 927.3,464.6" />
<path d="M 927.3,464.6 L 921.1,539.1 L 903.1,611.7 L 873.7,680.6 L 833.7,744.0 L 784.0,800.3 L 725.9,848.0 L 661.0,885.9 L 590.7,913.0 L 516.9,928.5 L 441.5,932.1 L 366.4,923.7 L 293.6,903.3 L 224.8,871.6 L 161.9,829.3 L 106.5,777.4 L 60.0,717.3 L 23.7,650.5 L -1.6,578.7 L -15.2,503.7 L -16.6,427.4 L -5.8,351.8 L 16.9,278.7 L 51.0,210.2 L 95.6,147.9 L 149.7,93.4 L 211.8,48.2 L 280.4,13.5 L 353.7,-10.0 L 429.9,-21.4 L 507.0,-20.6 L 583.1,-7.5 L 656.2,17.7 L 724.5,54.1 L 786.1,101.1 L 839.5,157.3 L 883.4,221.4" />
<path d="M 883.4,221.4 L 916.5,291.7 L 938.0,366.5 L 947.3,443.8 L 944.2,521.7 L 928.7,598.2 L 901.1,671.3 L 862.2,739.2 L 813.0,800.1 L 754.6,852.4 L 688.6,894.8 L 616.6,926.1 L 540.4,945.6 L 462.0,952.8 L 383.4,947.3 L 306.6,929.4 L 233.5,899.4 L 166.1,858.1 L 106.1,806.6 L 54.9,746.0 L 14.1,678.1 L -15.5,604.4 L -32.9,526.9 L -37.8,447.5 L -30.0,368.2 L -9.6,291.2 L 22.9,218.3 L 66.6,151.4 L 120.4,92.3 L 183.0,42.4 L 252.9,3.2 L 328.2,-24.5 L 407.0,-39.8 L 487.3,-42.4 L 567.1,-32.2 L 644.4,-9.3 L 717.0,25.6" />
<path d="M 717.0,25.6 L 783.3,71.7 L 841.4,127.9 L 889.9,192.6 L 927.5,264.3 L 953.2,341.2 L 966.4,421.2 L 966.6,502.4 L 953.9,582.7 L 928.5,660.0 L 891.1,732.4 L 842.6,797.9 L 784.2,855.0 L 717.4,902.0 L 643.8,937.9 L 565.5,961.6 L 484.2,972.5 L 402.2,970.3 L 321.5,955.1 L 244.2,927.2 L 172.2,887.2 L 107.5,836.3 L 51.6,775.7 L 6.1,706.8 L -27.9,631.5 L -49.5,551.7 L -58.2,469.3 L -53.5,386.6 L -35.8,305.6 L -5.3,228.3 L 37.1,156.8 L 90.4,93.0 L 153.3,38.4 L 224.2,-5.6 L 301.2,-37.7 L 382.5,-57.1 L 465.8,-63.4" />
<path d="M 465.8,-63.4 L 549.2,-56.3 L 630.5,-36.0 L 707.6,-2.9 L 778.5,42.0 L 841.4,97.7 L 894.7,162.8 L 937.0,235.7 L 967.1,314.4 L 984.3,397.0 L 988.2,481.3 L 978.6,565.3 L 955.7,646.8 L 920.0,723.6 L 872.6,793.9 L 814.4,855.7 L 747.1,907.6 L 672.4,948.1 L 592.0,976.2 L 508.2,991.1 L 422.9,992.5 L 338.4,980.3 L 256.9,954.8 L 180.3,916.6 L 110.8,866.6 L 50.1,806.1 L -0.2,736.6 L -38.9,660.0 L -64.9,578.1 L -77.5,493.0 L -76.4,406.8 L -61.6,321.9 L -33.4,240.4 L 7.4,164.3 L 60.0,95.6 L 122.8,36.1 L 194.4,-12.6" />
<path d="M 194.4,-12.6 L 272.9,-49.4 L 356.3,-73.2 L 442.6,-83.4 L 529.5,-79.8 L 614.7,-62.3 L 696.2,-31.5 L 771.8,12.0 L 839.5,67.0 L 897.7,132.2 L 944.8,205.9 L 979.6,286.2 L 1001.1,371.1 L 1008.9,458.5 L 1002.7,546.0 L 982.5,631.5 L 949.0,712.8 L 902.9,787.8 L 845.4,854.6 L 777.9,911.3 L 702.1,956.7 L 620.1,989.4 L 533.7,1008.7 L 445.4,1013.9 L 357.2,1005.0 L 271.5,982.2 L 190.5,945.9 L 116.2,897.2 L 50.5,837.2 L -4.8,767.4 L -48.3,689.7 L -78.9,605.9 L -95.8,518.2 L -98.5,428.9 L -86.9,340.2 L -61.3,254.4 L -22.3,173.8" />
<path d="M -22.3,173.8 L 29.0,100.2 L 91.5,35.8 L 163.5,-18.0 L 243.3,-59.6 L 328.7,-88.0 L 417.6,-102.4 L 507.8,-102.5 L 596.9,-88.2 L 682.7,-59.9 L 763.0,-18.2 L 835.6,35.8 L 898.8,100.8 L 950.9,175.0 L 990.5,256.7 L 1016.7,343.7 L 1028.6,433.8 L 1026.0,524.8 L 1009.0,614.3 L 977.8,700.0 L 933.4,779.7 L 876.8,851.4 L 809.5,913.2 L 733.0,963.6 L 649.5,1001.1 L 560.9,1024.9 L 469.6,1034.3 L 378.0,1029.0 L 288.2,1009.2 L 202.7,975.3 L 123.5,928.1 L 52.9,868.9 L -7.5,799.1 L -56.0,720.5 L -91.4,635.2 L -112.8,545.2 L -119.6,452.8" />
<path d="M -119.6,452.8 L -111.5,360.5 L -88.9,270.5 L -52.1,185.3 L -2.2,106.9 L 59.6,37.4 L 131.7,-21.5 L 212.4,-68.1 L 299.6,-101.3 L 391.0,-120.2 L 484.3,-124.3 L 577.2,-113.5 L 667.3,-88.0 L 752.2,-48.4 L 829.8,4.3 L 898.0,68.6 L 955.2,143.1 L 999.9,225.9 L 1030.8,314.8 L 1047.1,407.5" />

    </g>
  </g>
</svg>
